# xmcd
#
# Track frame offsets:
# 150
# 15764
# 27061
# 40763
# 55264
# 71546
# 79094
# 96519
# 110995
# 122858
# 138072
# 155519
# 168029
# 186182
# 200053
#
# Disc length: 2918 seconds
#
#
# Revision: 3
# Processed by: cddbd v1.5.2PL0 Copyright (c) Steve Scherf et al.
# Submitted via: FreeRIP 2.951 
#
DISCID=c30b640f
DTITLE=ROBERTA MIRANDA - SEM LIMITE VOL 2
DYEAR=1900
DGENRE=
TTITLE0=AMANHA
TTITLE1=SAO TANTAS COISAS
TTITLE2=SEMPRE MAIS
TTITLE3=VA COM DEUS
TTITLE4=IDOLO DE PANO
TTITLE5=DOI
TTITLE6=PEDACINHOS
TTITLE7=DE IGUAL PRA IGUAL
TTITLE8=VIDA DIVIDIDA
TTITLE9=DUAS TACAS
TTITLE10=COWBOY DOS SONHOS
TTITLE11=MARCAS
TTITLE12=SE CHAMA AMOR
TTITLE13=ME COBRE DE BEIJOS
TTITLE14=MAJESTADE, O SABIA
EXTD=
EXTT0=
EXTT1=
EXTT2=
EXTT3=
EXTT4=
EXTT5=
EXTT6=
EXTT7=
EXTT8=
EXTT9=
EXTT10=
EXTT11=
EXTT12=
EXTT13=
EXTT14=
PLAYORDER=
